<svg xmlns="http://www.w3.org/2000/svg" version="1.1" xmlns:xlink="http://www.w3.org/1999/xlink" xmlns:svgjs="http://svgjs.dev/svgjs" width="1440" height="1080" preserveAspectRatio="none" viewBox="0 0 1440 1080"><g mask="url(&quot;#SvgjsMask1611&quot;)" fill="none"><rect width="1440" height="1080" x="0" y="0" fill="url(&quot;#SvgjsLinearGradient1612&quot;)"></rect><path d="M440.82 0C515.52 51.71 475.46 186.92 540 186.92C622.25 186.92 628.96 73 734.4 0C763.96 -20.46 772.2 0 810 0C945 0 945 0 1080 0C1132.5 0 1139.46 -20.87 1185 0C1274.46 41 1275.86 123.75 1350 123.75C1406.26 123.75 1381.92 29.28 1445.81 0C1516.92 -32.59 1585.85 -52.94 1620 0C1672.94 82.06 1620 135 1620 270C1620 405 1620 405 1620 540C1620 648.32 1670.13 756.63 1620 756.63C1542.53 756.63 1477.77 657.24 1364.79 540C1342.77 517.16 1361.34 476.47 1350 476.47C1337.58 476.47 1343.31 516.31 1317.27 540C1208.31 639.12 1192.19 624.36 1080 722.09C1037.21 759.36 1007.31 764.49 1007.31 810C1007.31 860.95 1025.22 903.13 1080 915C1196.57 940.26 1215.69 879.51 1350 884.25C1485.69 889.04 1531.86 870.15 1620 934.05C1666.86 968.02 1667.37 1054.39 1620 1080C1532.37 1127.37 1485 1080 1350 1080C1215 1080 1215 1080 1080 1080C965.77 1080 962.76 1090.59 851.54 1080C827.76 1077.74 828.4 1054.29 810 1054.29C797.81 1054.29 805.81 1078.53 790.36 1080C670.81 1091.38 665.18 1080 540 1080C448.2 1080 438.65 1104.37 356.4 1080C303.65 1064.37 314.32 1000 270 1000C222.76 1000 229.99 1063.2 173.28 1080C94.99 1103.2 35.27 1131.37 0 1080C-51.37 1005.18 -6.2 951.7 0 827.61C0.55 816.7 13.5 819.68 13.5 810C13.5 794.68 0.87 794.98 0 777.6C-5.88 659.98 0 658.8 0 540C0 405 0 405 0 270C0 135 -67.5 67.5 0 0C67.5 -67.5 135 0 270 0C355.41 0 380.52 -41.75 440.82 0" stroke="rgba(86, 18, 133, 0.64)" stroke-width="2"></path><path d="M810 428.82C784.17 428.82 758.92 490.28 758.92 540C758.92 566.87 784.32 582 810 582C836.11 582 862.5 567.08 862.5 540C862.5 490.49 835.96 428.82 810 428.82" stroke="rgba(86, 18, 133, 0.64)" stroke-width="2"></path><path d="M270 202.5C182.88 242.3 90.06 206.01 0 138.46C-44.94 104.76 -45.76 23.47 0 0C89.24 -45.76 135 0 270 0C286.53 0 303.06 -14.05 303.06 0C303.06 87.2 334.41 173.07 270 202.5" stroke="rgba(162, 129, 169, 0.45)" stroke-width="2"></path><path d="M1566 270C1589.01 217.51 1605.66 168.75 1620 168.75C1632.66 168.75 1620 219.38 1620 270C1620 405 1620 405 1620 540C1620 609.07 1651.97 678.14 1620 678.14C1570.6 678.14 1468.68 626.34 1457.26 540C1441.68 422.27 1507.64 403.14 1566 270" stroke="rgba(162, 129, 169, 0.45)" stroke-width="2"></path><path d="M16.88 540C56.77 393.59 134.06 297.44 270 281.49C395.62 266.76 413.72 372.13 540 478.64C566.97 501.38 576.49 507.94 576.49 540C576.49 583.62 556.98 584.52 540 630C506.59 719.52 536.73 745.21 475.71 810C401.73 888.55 368.6 916.67 270 916.67C193.75 916.67 174.21 881.75 126 810C47.65 693.41 -15.23 657.85 16.88 540" stroke="rgba(86, 18, 133, 0.64)" stroke-width="2"></path><path d="M1050 540C1050 499.25 1064.39 450 1080 450C1095.76 450 1112.73 499.77 1112.73 540C1112.73 557.33 1096.1 565.12 1080 565.12C1064.73 565.12 1050 556.81 1050 540" stroke="rgba(86, 18, 133, 0.64)" stroke-width="2"></path><path d="M657.39 810C657.39 769.91 741.3 732 810 732C851.35 732 877.5 770.43 877.5 810C877.5 851.21 852.01 893.57 810 893.57C741.96 893.57 657.39 850.7 657.39 810" stroke="rgba(162, 129, 169, 0.45)" stroke-width="2"></path><path d="M0 974.35C19.88 974.35 72.54 1046.27 72.54 1080C72.54 1099.09 14.77 1101.5 0 1080C-21.5 1048.68 -16.39 974.35 0 974.35" stroke="rgba(86, 18, 133, 0.64)" stroke-width="2"></path><path d="M446.4 1080C446.4 1011.95 486.75 885 540 885C597.37 885 667.64 1017 667.64 1080C667.64 1114.5 603.82 1080 540 1080C493.2 1080 446.4 1109.45 446.4 1080" stroke="rgba(162, 129, 169, 0.45)" stroke-width="2"></path><path d="M1102.5 1080C1102.5 1050.87 1226.82 968.63 1350 968.63C1467.81 968.63 1584.47 1050.74 1584.47 1080C1584.47 1106.43 1467.24 1080 1350 1080C1226.25 1080 1102.5 1106.56 1102.5 1080" stroke="rgba(86, 18, 133, 0.64)" stroke-width="2"></path><path d="M157.5 540C163.22 470.1 211.14 425.11 270 425.11C334.89 425.11 396.36 466.14 405 540C418.86 658.58 372.3 685.51 315 810C304.8 832.17 291.57 833.33 270 833.33C253.32 833.33 245.37 827.91 238.5 810C189.12 681.24 147.47 662.54 157.5 540" stroke="rgba(86, 18, 133, 0.64)" stroke-width="2"></path><path d="M1549.73 540C1549.73 483.75 1601.23 414.88 1620 414.88C1636.37 414.88 1620 477.44 1620 540C1620 569.83 1633.8 599.65 1620 599.65C1598.67 599.65 1549.73 576.13 1549.73 540" stroke="rgba(86, 18, 133, 0.64)" stroke-width="2"></path><path d="M536.4 1080C536.4 1077.38 537.95 1072.5 540 1072.5C542.21 1072.5 544.91 1077.58 544.91 1080C544.91 1081.33 542.45 1080 540 1080C538.2 1080 536.4 1081.13 536.4 1080" stroke="rgba(86, 18, 133, 0.64)" stroke-width="2"></path><path d="M1290 1080C1290 1072.94 1320.14 1053 1350 1053C1378.56 1053 1406.84 1072.91 1406.84 1080C1406.84 1086.41 1378.42 1080 1350 1080C1320 1080 1290 1086.44 1290 1080" stroke="rgba(162, 129, 169, 0.45)" stroke-width="2"></path></g><defs><mask id="SvgjsMask1611"><rect width="1440" height="1080" fill="#ffffff"></rect></mask><linearGradient x1="93.75%" y1="-8.33%" x2="6.25%" y2="108.33%" gradientUnits="userSpaceOnUse" id="SvgjsLinearGradient1612"><stop stop-color="rgba(89, 48, 133, 1)" offset="0"></stop><stop stop-color="rgba(28, 62, 77, 1)" offset="1"></stop></linearGradient></defs></svg>